<svg xmlns="http://www.w3.org/2000/svg" width="458.8586" height="51.3077" viewBox="0 0 121.4063 13.5752"><path d="M35.3 122.273h-1.888l5.711 13.216h.358l5.56-13.216h-1.86l-3.907 9.14zm14.858 11.347q1.973 1.935 5.044 1.935 3.137 0 5.12-1.945a6.463 6.463 0 0 0 1.991-4.8 6.384 6.384 0 0 0-2-4.828q-2.002-1.916-5.054-1.916-3.147 0-5.11 1.982a6.52 6.52 0 0 0-1.954 4.762 6.48 6.48 0 0 0 1.963 4.81zm1.43-8.417a5.017 5.017 0 0 1 3.661-1.418 4.982 4.982 0 0 1 3.664 1.437 4.837 4.837 0 0 1 1.456 3.588 4.856 4.856 0 0 1-1.456 3.588 4.97 4.97 0 0 1-3.655 1.438 5.019 5.019 0 0 1-3.664-1.43 4.847 4.847 0 0 1-1.456-3.597 4.817 4.817 0 0 1 1.448-3.606zm23.657-2.959a9.5 9.5 0 0 0-1.662-.178q-3.119 0-5.157 1.944-2.03 1.945-2.03 4.96a6.322 6.322 0 0 0 1.964 4.621q1.963 1.964 5.27 1.964a10.695 10.695 0 0 0 4.63-1.137v-2.02a8.855 8.855 0 0 1-4.687 1.438q-2.339 0-3.785-1.41a4.782 4.782 0 0 1-1.446-3.578 4.819 4.819 0 0 1 1.493-3.626 5.247 5.247 0 0 1 3.776-1.437q2.189 0 4.5 1.437v-2.057a16.732 16.732 0 0 0-2.865-.92zm8.085 13.104 1.72-3.88h5.552l1.793 3.88h1.917l-5.862-13.141h-1.325l-5.71 13.14zm4.425-10.22 2.114 4.65h-4.106zm10.217 10.22h7.75v-1.69H99.86v-11.385h-1.888zm13.139-1.728q1.972 1.935 5.044 1.935 3.137 0 5.12-1.945a6.462 6.462 0 0 0 1.99-4.8 6.385 6.385 0 0 0-2-4.828q-2-1.916-5.054-1.916-3.147 0-5.11 1.982a6.521 6.521 0 0 0-1.953 4.762 6.48 6.48 0 0 0 1.963 4.81zm1.428-8.417a5.414 5.414 0 0 1 7.326.02 4.837 4.837 0 0 1 1.457 3.587 4.856 4.856 0 0 1-1.457 3.589 5.389 5.389 0 0 1-7.317.009 4.848 4.848 0 0 1-1.456-3.598 4.817 4.817 0 0 1 1.446-3.607zm15.374 10.145h1.888v-13.075h-1.888zm12.321 0q3.043 0 4.97-1.926a6.277 6.277 0 0 0 1.934-4.612 6.41 6.41 0 0 0-1.85-4.602q-1.85-1.935-5.054-1.935h-5.203v13.075zm-3.315-11.385h2.978q2.376 0 3.832 1.287 1.465 1.278 1.465 3.598a4.586 4.586 0 0 1-1.429 3.419q-1.429 1.39-3.71 1.39h-3.136z" style="fill:#fff;stroke-width:.274817;fill-rule:evenodd" transform="translate(-33.412 -121.98)"/><path d="M148.552 121.98v.464h1.026v2.801h.484v.032-2.859h1.104v-.413z" style="fill:#fff;fill-opacity:1;stroke:none;stroke-width:.264583px;stroke-linecap:butt;stroke-linejoin:miter;stroke-opacity:1" transform="translate(-33.412 -121.98)"/><path d="M151.76 125.278h.425v-2.563l1.091 1.265 1.117-1.258v2.53h.426v-3.124h-.44l-1.064 1.284-1.149-1.297h-.374z" style="fill:#fff;stroke:none;stroke-width:.264583px;stroke-linecap:butt;stroke-linejoin:miter;stroke-opacity:1" transform="translate(-33.412 -121.98)"/></svg>